<svg xmlns="http://www.w3.org/2000/svg" viewBox="0 0 266.63 67.94"><defs><style>.cls-1{fill:#fff;}</style></defs><g id="Calque_2" data-name="Calque 2"><g id="FR"><path class="cls-1" d="M0,37.1C0,21.83,11.07,12.67,22.37,12.67c5.27,0,9.08,1.91,11.37,5.42l.77-4.35h11.6l-7,39.7H27.48l.61-3.36a20,20,0,0,1-13,4.43C7.71,54.51,0,48.63,0,37.1Zm19.92,6.57c6.49,0,11.15-4.66,11.15-12.14,0-5.12-2.82-8-7.63-8-6.49,0-11.23,4.66-11.23,12.14C12.21,40.76,15.12,43.67,19.92,43.67ZM49.77,37.1c0-15.27,11.07-24.43,22.37-24.43,5.26,0,9.08,1.83,11.3,5.42L86.64,0H98.25L88.86,53.44H77.25l.61-3.36a20,20,0,0,1-13,4.43C57.48,54.51,49.77,48.63,49.77,37.1Zm19.92,6.57c6.49,0,11.15-4.66,11.15-12.14,0-5.12-2.82-8-7.63-8C66.72,23.51,62,28.17,62,35.65,62,40.76,64.89,43.67,69.69,43.67ZM99.54,37.1c0-15.88,12.52-24.43,25.34-24.43,8.86,0,18,6,18,17.41,0,15.88-12.52,24.43-25.34,24.43C108.7,54.51,99.54,48.48,99.54,37.1Zm19.92,6.57c6.49,0,11.23-4.66,11.23-12.14,0-5.12-2.9-8-7.71-8-6.49,0-11.23,4.66-11.23,12.14C111.75,40.76,114.66,43.67,119.46,43.67ZM157.25,49l-3.36,18.93h-11.6l9.62-54.2h11.6l-.61,3.36a20,20,0,0,1,13-4.43c7.33,0,15,5.88,15,17.41,0,15.27-11.07,24.43-22.37,24.43C163.36,54.51,159.54,52.6,157.25,49Zm10.3-5.34c6.49,0,11.23-4.66,11.23-12.14,0-5.12-2.9-8-7.71-8-6.49,0-11.15,4.66-11.15,12.14C159.92,40.76,162.75,43.67,167.55,43.67Zm31.84-3.06,2.9-16.49h-6l1.83-10.38h6l1.75-9.92h11.61l-1.76,9.92h8.4l-1.83,10.38h-8.4L211,40.61c-.31,1.53.23,2.45,1.76,2.45h5.49l-1.83,10.38h-5.5C203.28,53.44,198,48.32,199.39,40.61Zm26.1-3.43c0-15.8,10.77-24.51,24.51-24.51,9.77,0,18.78,7.18,16.18,20.92l-.69,3.66H236.87c.53,4.51,3.13,6.87,7.71,6.87A8.37,8.37,0,0,0,250.84,42h13.89c-4.88,8.78-12.82,12.52-21.68,12.52C234.42,54.51,225.49,48.48,225.49,37.18Zm29.62-8C255,23.74,251.68,22,248.24,22a10.94,10.94,0,0,0-10.3,7.17Z"/></g></g></svg>